<?xml version="1.0"?>
<svg version="1.1" xmlns="http://www.w3.org/2000/svg" width="400" height="200" style="border: dashed 2px #aaa"><path fill="#" d="M16.63818359375,93.447265625q0-1.26220703125,0.067138671875-2.49755859375t0.228271484375-2.44384765625q0.107421875-0.61767578125,0.953369140625-0.88623046875t1.409912109375-0.2685546875l0.64453125,0.0537109375q0.77880859375,0.107421875,1.571044921875-0.107421875t1.571044921875-0.21484375q1.826171875,0,4.08203125,0.40283203125t4.229736328125,1.36962890625t3.316650390625,2.537841796875t1.3427734375,3.880615234375t-1.396484375,4.310302734375t-3.51806640625,3.51806640625t-4.5654296875,2.376708984375t-4.48486328125,0.859375q0.21484375,5.18310546875,0.604248046875,10.28564453125t1.329345703125,10.205078125l0.0537109375,0.34912109375q0,0.3759765625-0.335693359375,0.61767578125t-0.792236328125,0.389404296875t-0.926513671875,0.201416015625t-0.765380859375,0.0537109375q-0.67138671875,0-1.624755859375-0.255126953125t-1.168212890625-1.007080078125q-0.61767578125-2.36328125-0.966796875-5.196533203125t-0.51025390625-5.921630859375t-0.228271484375-6.217041015625t-0.067138671875-6.109619140625l0-6.04248046875q0-0.99365234375-0.02685546875-2.06787109375t-0.02685546875-2.17529296875z M21.7138671875,89.0966796875q0,3.67919921875,0.08056640625,7.344970703125t0.18798828125,7.344970703125q1.58447265625-0.322265625,3.236083984375-1.141357421875t2.98095703125-1.947021484375t2.1484375-2.564697265625t0.819091796875-3.021240234375q0-1.42333984375-0.711669921875-2.55126953125t-1.839599609375-1.93359375q-1.10107421875-0.77880859375-2.49755859375-1.20849609375q-1.2353515625-0.3759765625-2.4169921875-0.3759765625l-0.29541015625,0z M41.551196289062,109.96337890625q0-1.10107421875,0.389404296875-1.85302734375t1.651611328125-0.751953125q0.4833984375,0,1.20849609375,0.147705078125t0.83251953125,0.738525390625q0.2685546875,1.58447265625,0.29541015625,3.4375t0.18798828125,3.4912109375q0.61767578125-1.20849609375,1.58447265625-2.60498046875t2.2021484375-2.578125t2.685546875-1.96044921875t2.9541015625-0.77880859375q0.107421875,0,0.40283203125,0.08056640625t0.550537109375,0.228271484375t0.308837890625,0.335693359375t-0.29541015625,0.34912109375q-0.107421875,0.322265625-0.45654296875,0.389404296875t-0.61767578125,0.067138671875q-0.1611328125,0-0.51025390625-0.13427734375q-1.9873046875,1.04736328125-3.3837890625,2.8466796875t-2.28271484375,3.988037109375t-1.2890625,4.619140625t-0.40283203125,4.739990234375q0,1.15478515625-0.523681640625,1.396484375t-1.678466796875,0.24169921875q-0.61767578125,0-1.302490234375-0.13427734375t-0.953369140625-0.859375q-0.4833984375-1.53076171875-0.792236328125-3.51806640625t-0.469970703125-4.095458984375t-0.228271484375-4.149169921875t-0.067138671875-3.67919921875z M60.099462890625,117.9931640625q0-1.53076171875,0.389404296875-3.155517578125t1.2353515625-2.92724609375t2.135009765625-2.12158203125t3.115234375-0.819091796875q1.36962890625,0,2.886962890625,0.469970703125t2.779541015625,1.3427734375t2.054443359375,2.135009765625t0.792236328125,2.81982421875q0,1.8798828125-0.684814453125,3.57177734375t-1.920166015625,3.021240234375t-2.886962890625,2.0947265625t-3.585205078125,0.765380859375q-1.58447265625,0-2.76611328125-0.577392578125t-1.973876953125-1.544189453125t-1.181640625-2.28271484375t-0.389404296875-2.79296875z M64.047216796875,117.939453125q0,0.4833984375,0.147705078125,1.42333984375t0.443115234375,1.839599609375t0.765380859375,1.5576171875t1.141357421875,0.604248046875q1.42333984375-0.1611328125,2.349853515625-0.926513671875t1.50390625-1.866455078125t0.8056640625-2.39013671875t0.228271484375-2.44384765625q0-1.47705078125-0.577392578125-2.470703125t-1.893310546875-1.611328125q0,0.0537109375,0.0537109375,0.0537109375t0.0537109375-0.0537109375l-0.67138671875-0.1611328125q-0.2685546875-0.107421875-0.657958984375-0.24169921875t-0.765380859375-0.5908203125q-1.04736328125,0.3759765625-1.624755859375,0.966796875t-0.872802734375,1.436767578125t-0.362548828125,2.027587890625t-0.067138671875,2.8466796875z M80.447045898437,107.76123046875q0-1.26220703125,0.496826171875-1.866455078125t1.812744140625-0.604248046875q0.77880859375,0,1.463623046875,0.322265625t0.684814453125,1.36962890625q0.107421875,1.53076171875,0.107421875,3.209228515625t0.29541015625,3.182373046875q0.67138671875-1.10107421875,1.517333984375-2.2021484375t1.866455078125-1.96044921875t2.22900390625-1.383056640625t2.6318359375-0.523681640625q1.93359375,0,3.2763671875,0.8056640625t2.215576171875,2.0947265625t1.26220703125,2.913818359375t0.389404296875,3.262939453125q0,2.5244140625-0.765380859375,4.122314453125t-2.027587890625,2.510986328125t-2.860107421875,1.2353515625t-3.209228515625,0.322265625q-1.42333984375,0-2.65869140625-0.550537109375t-1.71875-2.081298828125q0-0.4296875,0.631103515625-0.537109375t0.899658203125-0.107421875q0.88623046875,0,1.31591796875,0.4833984375q0.322265625,0.3759765625,0.711669921875,0.765380859375t0.819091796875,0.389404296875q0.83251953125,0,1.74560546875-0.469970703125t1.678466796875-1.2353515625t1.2890625-1.812744140625t0.523681640625-2.1484375q0-0.93994140625-0.1611328125-2.33642578125t-0.550537109375-2.685546875t-1.07421875-2.22900390625t-1.732177734375-0.93994140625q-1.58447265625,0-2.860107421875,1.4501953125t-2.12158203125,3.4912109375t-1.31591796875,4.2431640625t-0.469970703125,3.67919921875t0.18798828125,3.73291015625t0.389404296875,4.686279296875t0.389404296875,4.686279296875t0.18798828125,3.73291015625q0,0.3759765625-0.308837890625,0.604248046875t-0.738525390625,0.362548828125t-0.872802734375,0.1611328125t-0.657958984375,0.02685546875q-0.72509765625,0-1.517333984375-0.1611328125t-1.087646484375-0.99365234375q-0.3759765625-1.31591796875-0.6982421875-3.746337890625t-0.577392578125-5.37109375t-0.443115234375-6.1767578125t-0.322265625-6.243896484375t-0.201416015625-5.50537109375t-0.067138671875-3.974609375z M106.192578125,118.583984375q0-1.8798828125,0.416259765625-4.43115234375t1.409912109375-4.833984375t2.618408203125-3.880615234375t4.095458984375-1.597900390625q2.3095703125,0,3.46435546875,1.329345703125t1.15478515625,3.585205078125q0,1.47705078125-0.550537109375,3.236083984375t-1.571044921875,3.330078125t-2.4169921875,2.618408203125t-3.115234375,1.04736328125l-0.6982421875-0.0537109375q0,0.72509765625,0.21484375,1.947021484375t0.631103515625,2.430419921875t1.07421875,2.12158203125t1.597900390625,0.9130859375q1.36962890625,0,2.6318359375-1.10107421875t2.39013671875-2.44384765625t2.0947265625-2.44384765625t1.7724609375-1.10107421875q0.4296875,0,0.88623046875,0.13427734375t0.51025390625,0.751953125q0,0.3759765625-0.201416015625,0.61767578125t-0.362548828125,0.537109375q-0.83251953125,1.42333984375-1.812744140625,2.71240234375t-2.215576171875,2.33642578125t-2.698974609375,1.651611328125t-3.236083984375,0.604248046875q-2.3095703125,0-3.84033203125-0.819091796875t-2.470703125-2.2021484375t-1.356201171875-3.19580078125t-0.416259765625-3.800048828125z M110.99970703125,116.54296875l0.751953125,0.67138671875q0.537109375,0.4833984375,1.07421875,0.21484375t0.966796875-0.980224609375t0.792236328125-1.759033203125t0.64453125-2.1484375t0.416259765625-2.1484375t0.13427734375-1.74560546875l0-0.9130859375t-0.08056640625-0.966796875t-0.281982421875-0.765380859375t-0.631103515625-0.389404296875q-0.13427734375-0.02685546875-0.24169921875-0.02685546875q-0.9130859375,0-1.5576171875,1.15478515625q-0.6982421875,1.2890625-1.1279296875,3.128662109375t-0.61767578125,3.773193359375t-0.24169921875,2.900390625z M128.63488769531,109.96337890625q0-1.10107421875,0.389404296875-1.85302734375t1.651611328125-0.751953125q0.4833984375,0,1.20849609375,0.147705078125t0.83251953125,0.738525390625q0.2685546875,1.58447265625,0.29541015625,3.4375t0.18798828125,3.4912109375q0.61767578125-1.20849609375,1.58447265625-2.60498046875t2.2021484375-2.578125t2.685546875-1.96044921875t2.9541015625-0.77880859375q0.107421875,0,0.40283203125,0.08056640625t0.550537109375,0.228271484375t0.308837890625,0.335693359375t-0.29541015625,0.34912109375q-0.107421875,0.322265625-0.45654296875,0.389404296875t-0.61767578125,0.067138671875q-0.1611328125,0-0.51025390625-0.13427734375q-1.9873046875,1.04736328125-3.3837890625,2.8466796875t-2.28271484375,3.988037109375t-1.2890625,4.619140625t-0.40283203125,4.739990234375q0,1.15478515625-0.523681640625,1.396484375t-1.678466796875,0.24169921875q-0.61767578125,0-1.302490234375-0.13427734375t-0.953369140625-0.859375q-0.4833984375-1.53076171875-0.792236328125-3.51806640625t-0.469970703125-4.095458984375t-0.228271484375-4.149169921875t-0.067138671875-3.67919921875z M146.61918945312,100.4296875q0-0.3759765625,0.8056640625-0.64453125t1.826171875-0.443115234375t1.973876953125-0.255126953125t1.302490234375-0.13427734375q0-0.72509765625,0.0537109375-1.463623046875t0.29541015625-1.31591796875t0.765380859375-0.926513671875t1.463623046875-0.34912109375q0.77880859375,0,1.181640625,0.18798828125t0.859375,0.77880859375q0.107421875,0.322265625,0.107421875,0.61767578125l0,0.899658203125t-0.0537109375,0.926513671875q0.99365234375-0.107421875,1.973876953125-0.255126953125t1.973876953125-0.147705078125q0.72509765625,0,0.99365234375,0.02685546875t0.537109375,0.64453125q0.21484375,0.61767578125-0.523681640625,0.93994140625t-1.7724609375,0.4833984375t-2.054443359375,0.24169921875t-1.2353515625,0.08056640625q-0.322265625,4.619140625-0.657958984375,9.15771484375t-0.335693359375,9.21142578125q0,2.0947265625,0.13427734375,4.32373046875t0.751953125,4.21630859375q0.1611328125,0.61767578125,0.537109375,1.15478515625t0.3759765625,1.15478515625q0,0.3759765625-0.29541015625,0.5908203125t-0.711669921875,0.362548828125t-0.83251953125,0.174560546875t-0.684814453125,0.02685546875q-1.69189453125,0-2.578125-1.26220703125t-1.275634765625-3.021240234375t-0.416259765625-3.612060546875t-0.02685546875-3.0078125q0-2.36328125,0.093994140625-4.833984375t0.228271484375-4.8876953125t0.3759765625-4.7265625t0.56396484375-4.296875q-0.93994140625,0.107421875-1.839599609375,0.24169921875t-1.839599609375,0.13427734375q-0.21484375,0-0.577392578125-0.02685546875t-0.684814453125-0.13427734375t-0.550537109375-0.29541015625t-0.228271484375-0.537109375z M167.15476074219,111.494140625q0-0.77880859375,0.443115234375-1.0205078125t1.114501953125-0.24169921875q1.10107421875,0,1.678466796875,0.416259765625t0.577392578125,1.463623046875q0,1.26220703125,0.18798828125,3.155517578125t0.550537109375,3.67919921875t0.859375,3.074951171875t1.033935546875,1.2890625q0.99365234375,0,1.759033203125-1.53076171875t1.3427734375-3.759765625t0.99365234375-4.793701171875t0.577392578125-4.578857421875q0.107421875-1.10107421875,0.523681640625-1.597900390625t1.517333984375-0.496826171875q1.26220703125,0,1.839599609375,1.04736328125t0.738525390625,2.578125q0.13427734375,1.31591796875,0.13427734375,2.7392578125l0,0.45654296875l0,1.07421875q0,1.0205078125,0.02685546875,1.826171875l0.77880859375,16.46240234375l0.107421875,2.7392578125q0.0537109375,0.3759765625,0.08056640625,0.711669921875t0.02685546875,0.711669921875q0,1.53076171875-0.657958984375,1.973876953125t-2.135009765625,0.443115234375q-0.322265625,0-0.819091796875-0.0537109375t-0.966796875-0.21484375t-0.8056640625-0.443115234375t-0.335693359375-0.711669921875l0.107421875-0.2685546875q0.13427734375-1.611328125,0.13427734375-3.3837890625l0-0.56396484375q-0.02685546875-2.0947265625-0.13427734375-4.2431640625t-0.24169921875-4.296875t-0.13427734375-4.1357421875q-0.3759765625,0.83251953125-0.872802734375,1.71875t-1.15478515625,1.597900390625t-1.490478515625,1.181640625t-1.8798828125,0.469970703125q-1.53076171875,0-2.5244140625-0.8056640625t-1.544189453125-2.0947265625t-0.792236328125-2.886962890625t-0.322265625-3.19580078125t-0.107421875-3.048095703125t-0.21484375-2.44384765625z M199.84699707031,126.88232421875q0-0.1611328125,0.107421875-1.141357421875t0.281982421875-2.39013671875t0.389404296875-3.03466796875t0.3759765625-3.074951171875t0.281982421875-2.55126953125t0.120849609375-1.47705078125q-0.21484375-0.107421875-0.523681640625-0.308837890625t-0.308837890625-0.469970703125q0-0.3759765625,0.362548828125-0.604248046875t0.631103515625-0.335693359375q0.107421875-1.36962890625,0.2685546875-3.8134765625t0.496826171875-5.277099609375t0.93994140625-5.7470703125t1.597900390625-5.29052734375t2.39013671875-3.880615234375t3.4375-1.50390625t3.3837890625,1.2890625t2.188720703125,3.35693359375t1.2890625,4.59228515625t0.67138671875,5.02197265625t0.281982421875,4.6728515625t0.107421875,3.4912109375q0.0537109375,0.83251953125,0.40283203125,1.114501953125t0.765380859375,0.389404296875t0.751953125,0.24169921875t0.335693359375,0.67138671875q0,0.61767578125-0.751953125,0.859375t-1.181640625,0.29541015625q0.2685546875,3.35693359375,0.738525390625,6.6064453125t1.248779296875,6.552734375q0.107421875,0.61767578125,0.29541015625,1.248779296875t0.18798828125,1.221923828125q0,0.4296875-0.29541015625,0.711669921875t-0.765380859375,0.443115234375t-0.93994140625,0.21484375t-0.792236328125,0.0537109375q-1.20849609375,0-2.041015625-0.45654296875t-1.10107421875-1.74560546875q-0.72509765625-3.46435546875-1.42333984375-7.27783203125q-0.5908203125-3.30322265625-0.5908203125-6.41845703125q0-0.4833984375,0.02685546875-0.966796875q-2.255859375,0-4.53857421875,0.107421875t-4.37744140625,0.8056640625q-0.0537109375,0.72509765625-0.2685546875,2.7392578125t-0.4833984375,4.32373046875t-0.550537109375,4.417724609375t-0.335693359375,2.994384765625q-0.0537109375,0.3759765625-0.550537109375,0.711669921875t-1.07421875,0.362548828125t-1.0205078125-0.362548828125t-0.443115234375-1.383056640625z M204.86896972656,110.60791015625q2.0947265625-0.4833984375,4.202880859375-0.56396484375t4.256591796875-0.18798828125q-0.107421875-0.67138671875-0.0537109375-1.383056640625t0.0537109375-1.436767578125q0-1.58447265625-0.08056640625-3.67919921875t-0.24169921875-4.2431640625t-0.416259765625-4.229736328125t-0.577392578125-3.7060546875t-0.684814453125-2.591552734375t-0.792236328125-0.966796875q-0.83251953125,0.0537109375-1.571044921875,1.436767578125t-1.3427734375,3.51806640625t-1.10107421875,4.7802734375t-0.83251953125,5.169677734375t-0.550537109375,4.69970703125t-0.2685546875,3.3837890625z M226.93530273437,117.6171875l0-0.77880859375q0-0.966796875,0.0537109375-1.826171875q0.0537109375-1.20849609375,0.0537109375-1.9873046875q0-0.4296875,0.0537109375-0.980224609375t0.2685546875-0.872802734375q0.2685546875-0.2685546875,0.631103515625-0.550537109375t0.792236328125-0.281982421875q1.36962890625,0,2.1484375,0.308837890625t0.83251953125,1.275634765625l0.107421875,0.83251953125q0.4833984375-1.15478515625,1.2890625-2.860107421875t1.866455078125-3.24951171875t2.39013671875-2.6318359375t2.806396484375-1.087646484375q1.36962890625,0,2.255859375,1.2890625t1.409912109375,3.289794921875t0.738525390625,4.4580078125t0.29541015625,4.820556640625t0.107421875,4.310302734375t0.18798828125,2.940673828125q0.107421875,0.83251953125,0.362548828125,1.759033203125t0.255126953125,1.705322265625q0,0.21484375-0.308837890625,0.416259765625t-0.657958984375,0.335693359375t-0.711669921875,0.21484375t-0.523681640625,0.08056640625q-1.04736328125,0-1.490478515625-1.571044921875t-0.550537109375-3.934326171875t-0.107421875-5.115966796875t-0.18798828125-5.115966796875t-0.765380859375-3.934326171875t-1.839599609375-1.624755859375q-1.15478515625,0-2.39013671875,1.490478515625t-2.12158203125,3.961181640625q-0.859375,2.470703125-1.181640625,5.61279296875q-0.107421875,0.99365234375-0.107421875,1.9873046875q0,2.17529296875,0.45654296875,4.3505859375q0.0537109375,0.3759765625-0.308837890625,0.56396484375t-0.899658203125,0.29541015625t-1.087646484375,0.13427734375t-0.845947265625,0.02685546875q-1.04736328125,0-1.678466796875-0.738525390625t-0.980224609375-1.893310546875t-0.469970703125-2.591552734375t-0.147705078125-2.833251953125z M251.33806152344,117.48291015625q0-1.826171875,0.496826171875-3.51806640625t1.490478515625-3.021240234375t2.484130859375-2.12158203125t3.450927734375-0.792236328125q1.20849609375,0,2.672119140625,0.362548828125t2.752685546875,1.07421875t2.1484375,1.812744140625t0.859375,2.5244140625q0,0.67138671875-0.228271484375,1.0205078125t-0.926513671875,0.34912109375l-0.29541015625-0.0537109375q0.77880859375,2.0947265625,1.3427734375,4.296875t1.10107421875,4.404296875q0.21484375,0.4296875,0.322265625,0.765380859375t0.107421875,0.657958984375q0,0.4296875-0.24169921875,0.711669921875t-0.631103515625,0.416259765625t-0.8056640625,0.18798828125t-0.738525390625,0.0537109375q-1.15478515625,0-1.732177734375-0.40283203125t-0.83251953125-1.10107421875t-0.308837890625-1.571044921875t-0.21484375-1.759033203125q-0.322265625,1.04736328125-0.845947265625,2.041015625t-1.2353515625,1.785888671875t-1.678466796875,1.26220703125t-2.17529296875,0.469970703125q-1.7724609375,0-2.98095703125-1.0205078125t-1.947021484375-2.510986328125t-1.07421875-3.182373046875t-0.335693359375-3.14208984375z M255.15153808594,117.10693359375q0,0.99365234375,0.13427734375,2.0947265625t0.443115234375,2.17529296875t0.792236328125,2.027587890625t1.20849609375,1.678466796875q1.31591796875-1.42333984375,1.947021484375-3.46435546875t1.1279296875-3.934326171875t1.1279296875-3.24951171875t1.947021484375-1.356201171875q0.83251953125,0,1.396484375,0.29541015625q-0.2685546875-0.67138671875-0.88623046875-1.302490234375t-1.383056640625-1.15478515625t-1.58447265625-0.859375t-1.544189453125-0.335693359375q-0.21484375,0-0.496826171875,0.067138671875t-0.443115234375,0.013427734375q-1.10107421875,0.322265625-1.812744140625,1.114501953125t-1.15478515625,1.866455078125t-0.631103515625,2.2021484375t-0.18798828125,2.12158203125z M274.612890625,127.0166015625q0-0.77880859375,0.067138671875-1.63818359375t0.120849609375-1.611328125l0.1611328125-4.0283203125q0.2685546875-4.833984375,0.657958984375-9.5068359375t0.657958984375-9.453125q0.1611328125-2.6318359375,0.24169921875-5.169677734375t0.24169921875-5.169677734375q-0.107421875-0.21484375-0.107421875-0.29541015625q0-0.3759765625,0.281982421875-0.5908203125t0.657958984375-0.362548828125t0.792236328125-0.201416015625t0.631103515625-0.0537109375l0.61767578125,0q0.83251953125,0.107421875,1.20849609375,0.523681640625t0.4833984375,0.99365234375t0.0537109375,1.2353515625t-0.0537109375,1.221923828125q0,3.89404296875-0.18798828125,7.935791015625t-0.4296875,8.1103515625t-0.443115234375,8.13720703125t-0.201416015625,8.043212890625l0,1.8798828125q0,1.26220703125-0.711669921875,1.6650390625t-1.973876953125,0.40283203125q-1.10107421875,0-1.93359375-0.4833984375t-0.83251953125-1.58447265625z M286.93068847656,111.494140625q0-0.77880859375,0.443115234375-1.0205078125t1.114501953125-0.24169921875q1.10107421875,0,1.678466796875,0.416259765625t0.577392578125,1.463623046875q0,1.26220703125,0.18798828125,3.155517578125t0.550537109375,3.67919921875t0.859375,3.074951171875t1.033935546875,1.2890625q0.99365234375,0,1.759033203125-1.53076171875t1.3427734375-3.759765625t0.99365234375-4.793701171875t0.577392578125-4.578857421875q0.107421875-1.10107421875,0.523681640625-1.597900390625t1.517333984375-0.496826171875q1.26220703125,0,1.839599609375,1.04736328125t0.738525390625,2.578125q0.13427734375,1.31591796875,0.13427734375,2.7392578125l0,0.45654296875l0,1.07421875q0,1.0205078125,0.02685546875,1.826171875l0.77880859375,16.46240234375l0.107421875,2.7392578125q0.0537109375,0.3759765625,0.08056640625,0.711669921875t0.02685546875,0.711669921875q0,1.53076171875-0.657958984375,1.973876953125t-2.135009765625,0.443115234375q-0.322265625,0-0.819091796875-0.0537109375t-0.966796875-0.21484375t-0.8056640625-0.443115234375t-0.335693359375-0.711669921875l0.107421875-0.2685546875q0.13427734375-1.611328125,0.13427734375-3.3837890625l0-0.56396484375q-0.02685546875-2.0947265625-0.13427734375-4.2431640625t-0.24169921875-4.296875t-0.13427734375-4.1357421875q-0.3759765625,0.83251953125-0.872802734375,1.71875t-1.15478515625,1.597900390625t-1.490478515625,1.181640625t-1.8798828125,0.469970703125q-1.53076171875,0-2.5244140625-0.8056640625t-1.544189453125-2.0947265625t-0.792236328125-2.886962890625t-0.322265625-3.19580078125t-0.107421875-3.048095703125t-0.21484375-2.44384765625z M309.31928710937,109.23828125q0-0.537109375,0.6982421875-0.684814453125t1.07421875-0.147705078125q2.36328125,0,4.64599609375-0.40283203125t4.59228515625-0.40283203125q0.21484375,0,0.711669921875,0.02685546875t0.93994140625,0.107421875t0.792236328125,0.2685546875t0.34912109375,0.56396484375q0,0.67138671875-0.322265625,1.93359375t-0.872802734375,2.833251953125t-1.20849609375,3.330078125t-1.31591796875,3.35693359375t-1.2353515625,2.886962890625t-0.926513671875,2.01416015625q0.88623046875,0.1611328125,2.17529296875,0.2685546875t2.44384765625,0.21484375t1.93359375,0.362548828125t0.72509765625,0.631103515625q-0.107421875,0.61767578125-1.10107421875,0.966796875q-0.966796875,0.34912109375-2.4169921875,0.4833984375q-0.88623046875,0.08056640625-1.8798828125,0.08056640625q-0.5908203125,0-1.181640625-0.02685546875q-1.611328125-0.08056640625-3.021240234375-0.2685546875t-2.349853515625-0.523681640625t-0.93994140625-0.711669921875q0-0.1611328125,0.469970703125-1.31591796875t1.15478515625-2.806396484375t1.517333984375-3.5986328125t1.597900390625-3.746337890625t1.3427734375-3.19580078125t0.792236328125-1.93359375q-1.58447265625,0.107421875-3.209228515625,0.2685546875t-3.209228515625,0.1611328125q-0.21484375,0-0.684814453125-0.02685546875t-0.9130859375-0.13427734375t-0.8056640625-0.308837890625t-0.362548828125-0.523681640625z M330.06970214844,118.583984375q0-1.8798828125,0.416259765625-4.43115234375t1.409912109375-4.833984375t2.618408203125-3.880615234375t4.095458984375-1.597900390625q2.3095703125,0,3.46435546875,1.329345703125t1.15478515625,3.585205078125q0,1.47705078125-0.550537109375,3.236083984375t-1.571044921875,3.330078125t-2.4169921875,2.618408203125t-3.115234375,1.04736328125l-0.6982421875-0.0537109375q0,0.72509765625,0.21484375,1.947021484375t0.631103515625,2.430419921875t1.07421875,2.12158203125t1.597900390625,0.9130859375q1.36962890625,0,2.6318359375-1.10107421875t2.39013671875-2.44384765625t2.0947265625-2.44384765625t1.7724609375-1.10107421875q0.4296875,0,0.88623046875,0.13427734375t0.51025390625,0.751953125q0,0.3759765625-0.201416015625,0.61767578125t-0.362548828125,0.537109375q-0.83251953125,1.42333984375-1.812744140625,2.71240234375t-2.215576171875,2.33642578125t-2.698974609375,1.651611328125t-3.236083984375,0.604248046875q-2.3095703125,0-3.84033203125-0.819091796875t-2.470703125-2.2021484375t-1.356201171875-3.19580078125t-0.416259765625-3.800048828125z M334.87683105469,116.54296875l0.751953125,0.67138671875q0.537109375,0.4833984375,1.07421875,0.21484375t0.966796875-0.980224609375t0.792236328125-1.759033203125t0.64453125-2.1484375t0.416259765625-2.1484375t0.13427734375-1.74560546875l0-0.9130859375t-0.08056640625-0.966796875t-0.281982421875-0.765380859375t-0.631103515625-0.389404296875q-0.13427734375-0.02685546875-0.24169921875-0.02685546875q-0.9130859375,0-1.5576171875,1.15478515625q-0.6982421875,1.2890625-1.1279296875,3.128662109375t-0.61767578125,3.773193359375t-0.24169921875,2.900390625z M352.51201171875,109.96337890625q0-1.10107421875,0.389404296875-1.85302734375t1.651611328125-0.751953125q0.4833984375,0,1.20849609375,0.147705078125t0.83251953125,0.738525390625q0.2685546875,1.58447265625,0.29541015625,3.4375t0.18798828125,3.4912109375q0.61767578125-1.20849609375,1.58447265625-2.60498046875t2.2021484375-2.578125t2.685546875-1.96044921875t2.9541015625-0.77880859375q0.107421875,0,0.40283203125,0.08056640625t0.550537109375,0.228271484375t0.308837890625,0.335693359375t-0.29541015625,0.34912109375q-0.107421875,0.322265625-0.45654296875,0.389404296875t-0.61767578125,0.067138671875q-0.1611328125,0-0.51025390625-0.13427734375q-1.9873046875,1.04736328125-3.3837890625,2.8466796875t-2.28271484375,3.988037109375t-1.2890625,4.619140625t-0.40283203125,4.739990234375q0,1.15478515625-0.523681640625,1.396484375t-1.678466796875,0.24169921875q-0.61767578125,0-1.302490234375-0.13427734375t-0.953369140625-0.859375q-0.4833984375-1.53076171875-0.792236328125-3.51806640625t-0.469970703125-4.095458984375t-0.228271484375-4.149169921875t-0.067138671875-3.67919921875z"/><path fill="#" d=""/></svg>
