<?xml version="1.0" encoding="UTF-8"?>
<!DOCTYPE svg PUBLIC "-//W3C//DTD SVG 20010904//EN" "http://www.w3.org/TR/2001/REC-SVG-20010904/DTD/svg10.dtd">
<svg xmlns="http://www.w3.org/2000/svg" version="1.0" width="520.000000pt" height="113.000000pt" viewBox="0 0 520.000000 113.000000" preserveAspectRatio="xMidYMid meet">
   <g transform="translate(0.000000,113.000000) scale(0.100000,-0.100000)" fill="#000000" stroke="none">
      <path d="M182 1005 c-60 -26 -62 -43 -62 -435 0 -285 3 -357 15 -386 26 -63 31 -64 526 -64 480 0 493 1 518 56 16 35 16 753 0 788 -25 55 -38 56 -521 56 -361 -1 -449 -3 -476 -15z m499 -179 c15 14 21 15 34 4 14 -12 14 -15 -1 -38 -16 -24 -15 -25 62 -103 43 -43 87 -79 98 -81 13 -2 20 -9 18 -19 -1 -8 11 -28 28 -44 16 -16 30 -37 30 -47 0 -25 -32 -23 -56 3 -18 20 -19 20 -54 -87 -20 -59 -40 -109 -46 -111 -5 -1 -15 1 -23 6 -11 7 -6 31 27 129 l40 120 -89 88 -89 89 -89 -89 -88 -88 37 -116 c34 -105 36 -118 22 -130 -24 -18 -35 -1 -67 106 -16 50 -31 92 -35 92 -4 0 -13 -7 -20 -15 -7 -8 -21 -15 -31 -15 -27 0 -24 32 5 59 14 13 26 33 28 45 2 12 12 22 23 24 11 2 55 38 97 80 l77 76 -17 28 c-15 25 -15 30 -2 38 10 6 23 4 38 -6 22 -14 25 -14 43 2z" />
      <path d="M1450 570 c0 -153 1 -160 20 -160 18 0 20 7 20 55 0 54 0 54 35 61 96 18 102 167 7 193 -86 24 -82 32 -82 -149z m88 98 c7 -7 12 -28 12 -48 0 -40 -14 -60 -42 -60 -15 0 -18 9 -18 60 0 51 3 60 18 60 10 0 23 -5 30 -12z" />
      <path d="M1657 723 c-4 -3 -7 -75 -7 -160 l0 -153 25 0 c23 0 24 4 27 63 l3 62 30 -62 c26 -54 34 -62 58 -63 l27 0 -30 60 c-30 60 -37 90 -21 90 5 0 16 16 26 35 23 50 6 101 -41 121 -35 15 -86 19 -97 7z m93 -62 c15 -29 12 -49 -10 -71 -32 -32 -40 -24 -40 35 0 48 2 55 20 55 10 0 24 -9 30 -19z" />
      <path d="M1965 723 c-50 -12 -95 -84 -95 -153 0 -82 53 -160 110 -160 78 0 120 56 120 162 0 76 -24 122 -75 144 -19 8 -36 13 -37 13 -2 -1 -12 -3 -23 -6z m65 -58 c31 -33 40 -127 16 -172 -26 -50 -90 -52 -116 -3 -15 28 -12 127 5 160 24 47 60 52 95 15z" />
      <path d="M2160 571 c0 -154 1 -161 20 -161 18 0 20 7 20 53 l0 54 41 12 c52 16 75 61 59 120 -13 50 -37 70 -93 77 l-47 7 0 -162z m90 90 c22 -43 2 -101 -36 -101 -11 0 -14 15 -14 60 0 53 2 60 20 60 10 0 24 -9 30 -19z" />
      <path d="M2360 570 l0 -161 63 3 c59 3 62 4 62 28 0 22 -5 25 -37 28 -38 3 -38 4 -38 48 l0 44 41 0 c36 0 40 2 37 23 -2 18 -10 23 -40 25 -36 3 -38 5 -38 38 0 33 1 34 40 34 36 0 40 3 40 25 0 24 -2 25 -65 25 l-65 0 0 -160z" />
      <path d="M2547 723 c-4 -3 -7 -75 -7 -160 l0 -153 25 0 c23 0 24 4 27 63 l3 62 30 -62 c26 -54 34 -62 58 -63 l27 0 -30 60 c-34 68 -36 82 -14 101 47 39 35 121 -22 145 -35 15 -86 19 -97 7z m93 -62 c15 -29 12 -49 -10 -71 -32 -32 -40 -24 -40 35 0 48 2 55 20 55 10 0 24 -9 30 -19z" />
      <path d="M2767 724 c-4 -4 -7 -16 -7 -26 0 -13 8 -18 30 -18 l30 0 0 -135 c0 -128 1 -135 20 -135 19 0 20 7 20 135 l0 135 31 0 c26 0 30 3 27 23 -3 20 -9 22 -73 25 -39 1 -74 0 -78 -4z" />
      <path d="M2978 724 c-4 -3 11 -44 33 -91 33 -73 39 -95 39 -154 0 -67 1 -69 25 -69 24 0 25 2 25 71 0 59 6 84 35 150 41 93 42 99 15 99 -16 0 -27 -15 -47 -60 -14 -33 -29 -60 -32 -60 -4 0 -13 17 -20 38 -24 68 -52 97 -73 76z" />
      <path d="M3629 718 c-1 -7 -2 -79 -3 -160 -1 -147 -1 -148 22 -148 21 0 22 3 22 90 0 50 3 90 8 90 4 0 23 -39 43 -88 28 -68 40 -88 57 -90 22 -3 22 -2 22 158 l0 161 -22 -3 c-22 -3 -23 -6 -19 -95 2 -55 -1 -93 -6 -93 -5 0 -27 43 -47 95 -29 74 -42 95 -57 95 -10 0 -19 -6 -20 -12z" />
      <path d="M3892 583 c-18 -82 -32 -154 -32 -160 0 -25 39 -14 46 12 5 20 12 25 40 25 28 0 35 -5 40 -25 4 -18 13 -25 31 -25 19 0 23 4 19 18 -3 9 -17 71 -31 137 -14 66 -27 130 -30 143 -4 15 -13 22 -28 22 -22 0 -25 -10 -55 -147z m73 -45 c7 -36 6 -38 -20 -38 -20 0 -25 4 -21 18 2 9 8 32 11 51 8 40 19 28 30 -31z" />
      <path d="M4090 571 l0 -161 65 0 c63 0 65 1 65 25 0 22 -4 25 -40 25 l-39 0 -3 133 c-3 128 -4 132 -25 135 l-23 3 0 -160z" />
      <path d="M4278 724 c-4 -3 11 -45 33 -94 33 -73 39 -99 39 -154 0 -64 1 -66 25 -66 24 0 25 2 25 74 0 63 5 85 35 151 19 42 33 81 30 86 -15 24 -38 5 -62 -51 -15 -33 -29 -60 -33 -60 -4 0 -15 21 -25 48 -10 26 -22 53 -28 60 -10 13 -30 16 -39 6z" />
      <path d="M4537 723 c-4 -3 -7 -15 -7 -25 0 -14 8 -18 40 -18 22 0 40 -3 40 -6 0 -4 -20 -65 -45 -135 l-44 -129 79 0 c73 0 80 2 80 20 0 17 -7 20 -45 20 -32 0 -45 4 -45 14 0 8 18 63 40 123 54 146 54 143 -23 143 -35 0 -67 -3 -70 -7z" />
      <path d="M4734 717 c-2 -7 -3 -78 -2 -157 l3 -145 63 -3 63 -3 -3 28 c-3 25 -8 28 -41 31 l-38 3 3 42 c3 41 4 42 41 45 32 3 37 7 37 28 0 21 -4 24 -41 24 -39 0 -40 1 -37 33 3 29 6 32 41 35 32 3 37 7 37 28 0 23 -3 24 -60 24 -40 0 -62 -4 -66 -13z" />
      <path d="M4920 571 c0 -154 1 -161 20 -161 18 0 20 7 20 60 0 33 4 60 8 60 5 0 21 -27 37 -60 23 -48 33 -60 52 -60 13 0 23 2 23 5 0 3 -14 33 -30 66 l-31 60 26 30 c32 39 33 88 2 125 -18 21 -35 28 -75 32 l-52 5 0 -162z m88 97 c20 -20 15 -76 -8 -88 -30 -16 -40 -4 -40 44 0 56 19 73 48 44z" />
      <path d="M3317 565 l-77 -155 155 0 c85 0 155 2 155 5 0 7 -149 305 -153 305 -1 0 -37 -70 -80 -155z m129 19 c24 -52 44 -97 44 -100 0 -2 -29 -4 -65 -4 -63 0 -65 1 -55 20 6 12 21 20 35 20 29 0 30 2 9 42 l-16 31 -34 -59 c-18 -33 -34 -62 -34 -66 0 -4 41 -9 92 -10 62 -2 93 -7 96 -15 3 -10 -26 -13 -122 -13 l-126 0 62 125 c35 69 64 125 66 125 2 0 23 -43 48 -96z" />
   </g>
</svg>